Coordinates
version=1
nRows=6
nColumns=40
inDegrees=yes

Units are S.I. units (second, meters, Newtons, ...)
If the header above contains a line with 'inDegrees', this indicates whether rotational values are in degrees (yes) or radians (no).

endheader
time	pelvis_tilt	pelvis_list	pelvis_rotation	pelvis_tx	pelvis_ty	pelvis_tz	hip_flexion_r	hip_adduction_r	hip_rotation_r	knee_angle_r	knee_angle_r_beta	ankle_angle_r	subtalar_angle_r	mtp_angle_r	hip_flexion_l	hip_adduction_l	hip_rotation_l	knee_angle_l	knee_angle_l_beta	ankle_angle_l	subtalar_angle_l	mtp_angle_l	lumbar_extension	lumbar_bending	lumbar_rotation	arm_flex_r	arm_add_r	arm_rot_r	elbow_flex_r	pro_sup_r	wrist_flex_r	wrist_dev_r	arm_flex_l	arm_add_l	arm_rot_l	elbow_flex_l	pro_sup_l	wrist_flex_l	wrist_dev_l
      6.79499999999999992895	     10.00681123541281714040	      7.52473474733332103881	   -177.81193590488302902486	      0.33077467883417482897	      0.75450630605929036587	     -0.90264124266088818782	     57.66338260452491226715	    -46.25542090556755425723	    -28.67723772826070316455	     67.79698583477531315111	      1.18328062574478565239	     -1.38500802021945901288	      0.00000000000000000000	      0.00000000000000000000	     76.47761028242707936897	    -41.66750525160648521705	      4.26478192176436632366	     73.02257885835915374173	      1.27448442937556927212	      5.01902127591945035334	      0.00000000000000000000	      0.00000000000000000000	    -67.97774198622700225769	      9.46606992103185440612	      8.91775348644449650237	     56.82510196918595823945	    -14.43430697947885121835	     15.44730075987622974765	     21.69852203107298294071	     86.25731029711212727307	      0.00000000000000000000	      0.00000000000000000000	     54.38334279404561755200	     -2.30838045757676457725	     13.80191894273798780546	     22.41201176303521336308	     86.61342867089798858160	      0.00000000000000000000	      0.00000000000000000000
      6.79999999999999982236	     10.01747577896200880332	      7.57340275274653773607	   -177.85696909182649960712	      0.33064298638989392254	      0.75483410329975597630	     -0.90270361228498641193	     57.62054537843155088694	    -46.13894737656157474248	    -28.67407963952384974959	     67.75516549111105746306	      1.18255072305352881834	     -1.37332036329746731695	      0.00000000000000000000	      0.00000000000000000000	     76.48694979968894358535	    -41.73972193024104626602	      4.26900877917596854871	     72.98101494616523154946	      1.27375900225777560770	      4.95154344706605797910	      0.00000000000000000000	      0.00000000000000000000	    -68.01856517511085087335	      9.44590381212304031067	      9.02765379123287914354	     56.79386590325605510543	    -14.58196077397095713479	     15.60306012334724456991	     21.83709375243539696498	     86.09705004145749285271	      0.00000000000000000000	      0.00000000000000000000	     54.35849573778448728945	     -2.27342632029038149710	     13.59369103999228300950	     22.50988244300098628514	     86.47901998996506733874	      0.00000000000000000000	      0.00000000000000000000
      6.80499999999999971578	      9.82186430007144828380	      7.41633818450547899204	   -177.98561887722567576020	      0.33026326978106546051	      0.75588327917057918093	     -0.90287395660650937579	     57.57380800753768568256	    -46.14435867681368819149	    -28.49958844928113421702	     67.70340642571014200257	      1.18164735694452760484	     -2.02227151091328316568	      0.00000000000000000000	      0.00000000000000000000	     75.83749166727648116648	    -41.84408912137384817242	      3.88442364546946627968	     72.82631481615756285919	      1.27105897563587832977	      5.31008864534774627231	      0.00000000000000000000	      0.00000000000000000000	    -68.29707808107677635689	      9.22455867991678424289	      8.95176268558990351210	     56.91659482267680658651	    -14.62738972425568562130	     16.22002042875355343199	     21.80109634427365961074	     85.67012829962121145400	      0.00000000000000000000	      0.00000000000000000000	     54.50144712396470936255	     -2.21385455865559377386	     13.58636541144547038584	     22.41301433604684234524	     86.19159539946699055690	      0.00000000000000000000	      0.00000000000000000000
      6.80999999999999960920	     10.06469572430618697467	      7.64720565540772589941	   -177.83710529869966876504	      0.33042206127404005755	      0.75544265772373553336	     -0.90267228257658638224	     57.51027074235775415900	    -46.04784085945266269846	    -28.77933985499178959344	     67.66593636224504848542	      1.18099338096613060145	     -1.45131762629156568778	      0.00000000000000000000	      0.00000000000000000000	     76.48943682429690227309	    -41.68870704455162012891	      4.37404995500903392980	     72.86750940323435088430	      1.27177795681436789366	      4.95896865674306663863	      0.00000000000000000000	      0.00000000000000000000	    -68.08169295885289784565	      9.49913815545043327404	      9.11928124416980168121	     56.91311031873214432153	    -14.59078192561704412356	     15.73271161372200843687	     21.77391472591544641091	     86.20443388909787074681	      0.00000000000000000000	      0.00000000000000000000	     54.48657339883865802221	     -2.12534342165387268864	     13.28386900513595314521	     22.39997381057627379164	     86.65959384067554083231	      0.00000000000000000000	      0.00000000000000000000
      6.81500000000000039080	     10.06355773842889789194	      7.64798664672895878169	   -177.84372382455217120878	      0.33024098251609135257	      0.75585927764467153445	     -0.90272194070045386205	     57.45048744054864187092	    -45.98318184301341915443	    -28.76359313849807364250	     67.59393028139399461907	      1.17973663777382253848	     -1.35797479451186875465	      0.00000000000000000000	      0.00000000000000000000	     76.39353190082994160548	    -41.69214957164785317900	      4.33282304263037243430	     72.78670735290074844670	      1.27036769499368440428	      4.95508786823110281006	      0.00000000000000000000	      0.00000000000000000000	    -68.13900323763915878317	      9.49143481005472366974	      9.14764081496036851604	     56.97217029334522919726	    -14.58295517203236713044	     15.70771979669559037518	     21.72027144384059482718	     86.11054369057089274975	      0.00000000000000000000	      0.00000000000000000000	     54.57090252125568952124	     -2.04152561986489455848	     13.12404625889826093044	     22.27915569543867846392	     86.55414340455288879639	      0.00000000000000000000	      0.00000000000000000000
      6.82000000000000028422	     10.11509963133318557027	      7.66241795846224427180	   -177.83888498035904035532	      0.33011246111058012431	      0.75617892390385910151	     -0.90277116142975322166	     57.43764050537148335707	    -45.94333250989284067600	    -28.79194992938429109586	     67.53517486659653457082	      1.17871116233223172109	     -1.44657116536581908939	      0.00000000000000000000	      0.00000000000000000000	     76.38087519835335115204	    -41.63826610279956952354	      4.37053170995852990899	     72.70650171428478358848	      1.26896784252117100777	      4.97064437088153621147	      0.00000000000000000000	      0.00000000000000000000	    -68.14472826911121217108	      9.49229392880765487917	      9.19003048100369213103	     56.97773533455162464634	    -14.57975363513515354441	     15.46770116060935507107	     21.74870502933999105721	     86.18063910830090890158	      0.00000000000000000000	      0.00000000000000000000	     54.55435059976031197948	     -1.98931222648124261809	     12.93466284198765592350	     22.36200440745325934699	     86.57804616404189346213	      0.00000000000000000000	      0.00000000000000000000
